<?xml version="1.0" encoding="UTF-8"?>
<!DOCTYPE svg PUBLIC "-//W3C//DTD SVG 1.1//EN" "http://www.w3.org/Graphics/SVG/1.1/DTD/svg11.dtd">
<svg xmlns="http://www.w3.org/2000/svg" version="1.1" width="610px" height="603px" style="shape-rendering:geometricPrecision; text-rendering:geometricPrecision; image-rendering:optimizeQuality; fill-rule:evenodd; clip-rule:evenodd" xmlns:xlink="http://www.w3.org/1999/xlink">
<g><path style="opacity:0.846" fill="#000000" d="M 280.5,8.5 C 383.451,1.29169 468.284,36.625 535,114.5C 588.937,185.053 608.437,263.22 593.5,349C 575.324,441.22 525.324,511.22 443.5,559C 374.8,595.796 302.466,605.13 226.5,587C 138.978,562.475 75.4785,509.308 36,427.5C 14.1279,378.069 6.12794,326.403 12,272.5C 27.1271,171.322 78.6271,95.1549 166.5,44C 202.309,24.7214 240.309,12.888 280.5,8.5 Z M 297.5,40.5 C 390.562,39.117 464.728,75.4503 520,149.5C 568.697,223.77 578.697,303.103 550,387.5C 517.484,468.349 459.984,522.849 377.5,551C 295.721,574.48 219.721,562.48 149.5,515C 71.1959,454.523 36.3626,374.689 45,275.5C 60.1148,177.756 111.948,107.256 200.5,64C 231.555,50.3606 263.889,42.5273 297.5,40.5 Z M 455.5,220.5 C 455.833,220.5 456.167,220.5 456.5,220.5C 456.833,220.5 457.167,220.5 457.5,220.5C 458.506,220.938 458.506,221.604 457.5,222.5C 456.662,222.842 456.328,223.508 456.5,224.5C 456.167,224.5 455.833,224.5 455.5,224.5C 454.508,224.672 453.842,224.338 453.5,223.5C 453.5,223.167 453.5,222.833 453.5,222.5C 454.5,222.167 455.167,221.5 455.5,220.5 Z"/></g>
<g><path style="opacity:0.884" fill="#000000" d="M 284.5,180.5 C 229.328,192.166 192.828,224.832 175,278.5C 170.64,294.691 168.807,311.191 169.5,328C 170.331,332.788 171.164,337.621 172,342.5C 172.638,339.464 172.472,336.464 171.5,333.5C 171.974,325.221 172.974,317.055 174.5,309C 175.833,308.333 177.167,308.333 178.5,309C 185.929,319.753 195.762,327.586 208,332.5C 208.947,354.668 213.614,376.001 222,396.5C 252.286,433.709 291.452,449.542 339.5,444C 381.741,437.059 413.408,415.059 434.5,378C 449.866,377.141 465.199,377.475 480.5,379C 481.022,379.561 481.355,380.228 481.5,381C 448.311,448.154 394.311,485.488 319.5,493C 250.704,495.346 195.87,469.179 155,414.5C 119.102,358.182 112.769,298.848 136,236.5C 164.985,170.19 215.151,130.69 286.5,118C 363.642,110.002 424.809,137.168 470,199.5C 481.502,214.503 489.835,231.17 495,249.5C 496.516,255.773 497.183,262.106 497,268.5C 495.257,273.91 491.757,277.744 486.5,280C 475.327,280.668 464.327,281.168 453.5,281.5C 450.5,281.333 447.5,281.167 444.5,281C 443.228,278.956 443.561,277.122 445.5,275.5C 452.254,272.572 457.587,268.072 461.5,262C 458.721,258.434 455.055,256.101 450.5,255C 440.856,251.561 431.189,248.561 421.5,246C 416.872,255.424 412.372,264.924 408,274.5C 406.355,280.392 405.355,286.392 405,292.5C 403.612,293.554 402.112,293.72 400.5,293C 392.924,282.728 390.424,271.228 393,258.5C 394.898,251.076 396.398,243.576 397.5,236C 397.406,232.643 396.573,229.477 395,226.5C 385.507,220.761 377.507,213.427 371,204.5C 369.133,199.898 367.466,195.232 366,190.5C 362.686,187.885 361.686,188.885 363,193.5C 364.277,200.102 367.277,205.769 372,210.5C 376,213.833 380,217.167 384,220.5C 384.781,221.944 384.614,223.277 383.5,224.5C 378.554,225.614 373.554,225.781 368.5,225C 349.624,219.182 330.291,216.849 310.5,218C 306.659,207.074 305.826,195.907 308,184.5C 308.516,181.966 309.683,179.8 311.5,178C 309.167,177.333 306.833,177.333 304.5,178C 305.321,188.09 305.821,198.256 306,208.5C 307.116,211.82 307.783,215.153 308,218.5C 292.113,222.966 276.947,229.3 262.5,237.5C 254.207,229.928 248.707,220.594 246,209.5C 244.643,220.789 248.31,230.122 257,237.5C 257.667,238.833 257.667,240.167 257,241.5C 245.567,250.764 235.733,261.43 227.5,273.5C 226.277,274.614 224.944,274.781 223.5,274C 212.982,265.654 206.982,254.82 205.5,241.5C 205.478,239.035 205.978,236.702 207,234.5C 217.022,219.846 229.689,208.179 245,199.5C 246.107,199.585 247.107,199.919 248,200.5C 248.883,197.898 250.383,195.731 252.5,194C 262.982,188.792 273.649,184.292 284.5,180.5 Z M 455.5,220.5 C 455.833,220.5 456.167,220.5 456.5,220.5C 456.833,220.5 457.167,220.5 457.5,220.5C 458.506,220.938 458.506,221.604 457.5,222.5C 456.662,222.842 456.328,223.508 456.5,224.5C 456.167,224.5 455.833,224.5 455.5,224.5C 454.508,224.672 453.842,224.338 453.5,223.5C 453.5,223.167 453.5,222.833 453.5,222.5C 454.5,222.167 455.167,221.5 455.5,220.5 Z"/></g>
<g><path style="opacity:0.384" fill="#292929" d="M 453.5,218.5 C 455.027,218.427 456.027,219.094 456.5,220.5C 456.167,220.5 455.833,220.5 455.5,220.5C 454.167,220.5 453.5,221.167 453.5,222.5C 453.5,222.833 453.5,223.167 453.5,223.5C 453.167,223.5 452.833,223.5 452.5,223.5C 452.5,222.167 452.5,220.833 452.5,219.5C 452.5,218.833 452.833,218.5 453.5,218.5 Z"/></g>
<g><path style="opacity:0.42" fill="#262626" d="M 457.5,222.5 C 458.506,221.604 458.506,220.938 457.5,220.5C 458.405,218.193 459.738,218.193 461.5,220.5C 460.423,221.705 459.09,222.372 457.5,222.5 Z"/></g>
<g><path style="opacity:0.012" fill="#444444" d="M 455.5,220.5 C 455.167,221.5 454.5,222.167 453.5,222.5C 453.5,221.167 454.167,220.5 455.5,220.5 Z"/></g>
<g><path style="opacity:0.486" fill="#1a1a1a" d="M 452.5,219.5 C 452.5,220.833 452.5,222.167 452.5,223.5C 452.167,223.5 451.833,223.5 451.5,223.5C 450.662,223.842 450.328,224.508 450.5,225.5C 449.503,225.53 448.836,225.03 448.5,224C 449.278,221.901 450.611,220.401 452.5,219.5 Z"/></g>
<g><path style="opacity:0.274" fill="#131313" d="M 453.5,218.5 C 456.23,217.183 459.063,217.183 462,218.5C 463.148,222.547 461.648,224.547 457.5,224.5C 457.737,225.791 457.404,226.791 456.5,227.5C 456.5,226.5 456.5,225.5 456.5,224.5C 456.328,223.508 456.662,222.842 457.5,222.5C 459.09,222.372 460.423,221.705 461.5,220.5C 459.738,218.193 458.405,218.193 457.5,220.5C 457.167,220.5 456.833,220.5 456.5,220.5C 456.027,219.094 455.027,218.427 453.5,218.5 Z"/></g>
<g><path style="opacity:0.078" fill="#414141" d="M 451.5,223.5 C 451.833,223.5 452.167,223.5 452.5,223.5C 452.833,223.5 453.167,223.5 453.5,223.5C 453.842,224.338 454.508,224.672 455.5,224.5C 455.083,225.124 454.416,225.457 453.5,225.5C 452.287,225.253 451.62,224.586 451.5,223.5 Z"/></g>
<g><path style="opacity:0.204" fill="#272727" d="M 451.5,223.5 C 451.62,224.586 452.287,225.253 453.5,225.5C 454.416,225.457 455.083,225.124 455.5,224.5C 455.833,224.5 456.167,224.5 456.5,224.5C 456.5,225.5 456.5,226.5 456.5,227.5C 454.214,227.405 452.214,226.738 450.5,225.5C 450.328,224.508 450.662,223.842 451.5,223.5 Z"/></g>
<g><path style="opacity:0.768" fill="#000000" d="M 199.5,245.5 C 201.167,245.5 202.833,245.5 204.5,245.5C 204.394,259.29 210.06,269.957 221.5,277.5C 221.833,278.5 222.167,279.5 222.5,280.5C 216.296,294.613 211.796,309.28 209,324.5C 208.275,325.059 207.442,325.392 206.5,325.5C 196.205,320.089 187.038,313.089 179,304.5C 178.537,282.392 185.37,262.726 199.5,245.5 Z"/></g>
</svg>
