<?xml version="1.0" encoding="UTF-8"?>
<!DOCTYPE svg PUBLIC "-//W3C//DTD SVG 1.1//EN" "http://www.w3.org/Graphics/SVG/1.1/DTD/svg11.dtd">
<svg xmlns="http://www.w3.org/2000/svg" version="1.1" width="120px" height="44px" style="shape-rendering:geometricPrecision; text-rendering:geometricPrecision; image-rendering:optimizeQuality; fill-rule:evenodd; clip-rule:evenodd" xmlns:xlink="http://www.w3.org/1999/xlink">
<g><path style="opacity:0.701" fill="#fefefe" d="M 12.5,10.5 C 10.8439,9.85353 9.17723,9.18687 7.5,8.5C 5.26056,8.57429 4.26056,9.74096 4.5,12C 4.66935,14.1674 5.83602,15.3341 8,15.5C 9.40638,14.5862 10.9064,13.9195 12.5,13.5C 13.0908,17.7406 11.2575,19.4073 7,18.5C 2.96859,18.9488 0.468592,17.2822 -0.5,13.5C -0.5,12.5 -0.5,11.5 -0.5,10.5C 0.468592,6.71782 2.96859,5.05115 7,5.5C 11.2575,4.59272 13.0908,6.25939 12.5,10.5 Z"/></g>
<g><path style="opacity:0.743" fill="#fefefe" d="M 12.5,13.5 C 12.5,12.5 12.5,11.5 12.5,10.5C 13.4686,6.71782 15.9686,5.05115 20,5.5C 24.6408,5.13819 27.1408,7.30485 27.5,12C 27.1408,16.6951 24.6408,18.8618 20,18.5C 15.9686,18.9488 13.4686,17.2822 12.5,13.5 Z M 18.5,8.5 C 22.4735,9.07546 23.4735,11.2421 21.5,15C 20.2161,15.6838 19.0495,15.5171 18,14.5C 17.3224,12.4024 17.4891,10.4024 18.5,8.5 Z"/></g>
<g><path style="opacity:0.751" fill="#fefefe" d="M 40.5,7.5 C 41.1667,12.8333 38.8333,15.1667 33.5,14.5C 33.5,15.8333 33.5,17.1667 33.5,18.5C 31.8333,18.5 30.1667,18.5 28.5,18.5C 28.5,14.1667 28.5,9.83333 28.5,5.5C 32.8131,4.99048 36.8131,5.65715 40.5,7.5 Z M 33.5,8.5 C 35.4646,8.94835 35.7979,9.94835 34.5,11.5C 33.6143,10.675 33.281,9.67504 33.5,8.5 Z"/></g>
<g><path style="opacity:0.754" fill="#fefefe" d="M 40.5,7.5 C 42.7866,4.90115 44.9533,5.23448 47,8.5C 47.6924,7.97473 48.1924,7.30806 48.5,6.5C 54.1375,5.33676 59.8041,5.17009 65.5,6C 66.9817,8.59179 66.6483,10.9251 64.5,13C 67.3253,19.0885 69.3253,18.7552 70.5,12C 69.9089,9.761 69.2422,7.59433 68.5,5.5C 71.1667,5.5 73.8333,5.5 76.5,5.5C 75.7578,7.59433 75.0911,9.761 74.5,12C 75.0911,14.239 75.7578,16.4057 76.5,18.5C 71.8215,18.6658 67.1548,18.4992 62.5,18C 61.2986,17.0975 60.4652,15.9308 60,14.5C 59.51,15.7932 59.3433,17.1266 59.5,18.5C 57.8333,18.5 56.1667,18.5 54.5,18.5C 54.6655,14.4862 54.4988,10.4862 54,6.5C 50.7695,9.88176 49.2695,13.8818 49.5,18.5C 47.8333,18.5 46.1667,18.5 44.5,18.5C 45.0914,14.0361 43.758,10.3695 40.5,7.5 Z M 59.5,8.5 C 61.337,8.63945 61.6704,9.30612 60.5,10.5C 59.7025,10.0431 59.3691,9.37644 59.5,8.5 Z"/></g>
<g><path style="opacity:0.704" fill="#fefefe" d="M 81.5,5.5 C 84.5184,5.33537 87.5184,5.50204 90.5,6C 91.3366,7.01127 91.67,8.17793 91.5,9.5C 89.1806,8.83303 86.8473,8.66636 84.5,9C 81.7406,11.5738 82.074,13.7405 85.5,15.5C 85.8333,15.1667 86.1667,14.8333 86.5,14.5C 85.1468,13.4763 84.4802,12.143 84.5,10.5C 86.8333,10.5 89.1667,10.5 91.5,10.5C 91.5,13.1667 91.5,15.8333 91.5,18.5C 87.8183,18.6653 84.1516,18.4986 80.5,18C 76.4404,13.3895 76.7737,9.22288 81.5,5.5 Z"/></g>
<g><path style="opacity:0.777" fill="#fefefe" d="M 93.5,5.5 C 95.1667,5.5 96.8333,5.5 98.5,5.5C 98.5,7.16667 98.5,8.83333 98.5,10.5C 99.8333,10.5 101.167,10.5 102.5,10.5C 102.5,8.83333 102.5,7.16667 102.5,5.5C 103.833,5.5 105.167,5.5 106.5,5.5C 106.5,9.83333 106.5,14.1667 106.5,18.5C 105.167,18.5 103.833,18.5 102.5,18.5C 102.5,16.8333 102.5,15.1667 102.5,13.5C 101.167,13.5 99.8333,13.5 98.5,13.5C 98.5,15.1667 98.5,16.8333 98.5,18.5C 96.8333,18.5 95.1667,18.5 93.5,18.5C 93.5,14.1667 93.5,9.83333 93.5,5.5 Z"/></g>
<g><path style="opacity:0.846" fill="#fefefe" d="M 119.5,5.5 C 119.5,6.5 119.5,7.5 119.5,8.5C 118.167,8.5 116.833,8.5 115.5,8.5C 115.5,11.8333 115.5,15.1667 115.5,18.5C 114.167,18.5 112.833,18.5 111.5,18.5C 111.5,15.1667 111.5,11.8333 111.5,8.5C 110.167,8.5 108.833,8.5 107.5,8.5C 107.5,7.5 107.5,6.5 107.5,5.5C 111.5,5.5 115.5,5.5 119.5,5.5 Z"/></g>
<g><path style="opacity:0.954" fill="#04f8a0" d="M 86.5,26.5 C 95.8393,26.3335 105.173,26.5002 114.5,27C 115.667,27.5 116.5,28.3333 117,29.5C 117.667,31.8333 117.667,34.1667 117,36.5C 116.5,37.6667 115.667,38.5 114.5,39C 105.167,39.6667 95.8333,39.6667 86.5,39C 84.1854,37.7043 83.1854,35.7043 83.5,33C 83.3199,30.1979 84.3199,28.0313 86.5,26.5 Z"/></g>
<g><path style="opacity:1" fill="#091811" d="M 88.5,29.5 C 93.1585,29.0146 94.4919,30.848 92.5,35C 91.2341,35.3095 90.0674,35.8095 89,36.5C 88.5034,34.1902 88.3367,31.8568 88.5,29.5 Z"/></g>
<g><path style="opacity:1" fill="#073221" d="M 94.5,29.5 C 96.3079,30.9179 96.9746,32.9179 96.5,35.5C 97.552,35.3505 98.552,35.5172 99.5,36C 97.8659,36.4935 96.1992,36.6602 94.5,36.5C 94.5,34.1667 94.5,31.8333 94.5,29.5 Z"/></g>
<g><path style="opacity:1" fill="#0a271b" d="M 101.5,29.5 C 102.822,29.33 103.989,29.6634 105,30.5C 105.667,32.5 105.667,34.5 105,36.5C 103.667,35.1667 102.333,35.1667 101,36.5C 100.297,34.0709 100.463,31.7375 101.5,29.5 Z"/></g>
<g><path style="opacity:1" fill="#04d98c" d="M 89.5,30.5 C 93.31,31.7542 93.31,32.7542 89.5,33.5C 89.5,32.5 89.5,31.5 89.5,30.5 Z"/></g>
<g><path style="opacity:1" fill="#04e795" d="M 101.5,31.5 C 102.675,31.281 103.675,31.6143 104.5,32.5C 102.948,33.7979 101.948,33.4646 101.5,31.5 Z"/></g>
<g><path style="opacity:1" fill="#09472e" d="M 106.5,29.5 C 107.859,30.0065 108.859,31.0065 109.5,32.5C 110.167,31.5 110.833,30.5 111.5,29.5C 111.833,30 112.167,30.5 112.5,31C 109.677,38.1159 107.677,37.6159 106.5,29.5 Z"/></g>
</svg>
